<?xml version="1.0" encoding="UTF-8"?>
<!DOCTYPE svg PUBLIC "-//W3C//DTD SVG 1.1//EN" "http://www.w3.org/Graphics/SVG/1.1/DTD/svg11.dtd">
<!-- Creator: CorelDRAW X6 -->
<svg xmlns="http://www.w3.org/2000/svg" xml:space="preserve" width="25.4mm" height="25.4mm" version="1.1" style="shape-rendering:geometricPrecision; text-rendering:geometricPrecision; image-rendering:optimizeQuality; fill-rule:evenodd; clip-rule:evenodd"
viewBox="0 0 254000 254000"
 xmlns:xlink="http://www.w3.org/1999/xlink">
 <defs>
  <style type="text/css">
   <![CDATA[
    .fil0 {fill:#003399}
    .fil1 {fill:white;fill-rule:nonzero}
   ]]>
  </style>
 </defs>
 <g id="Camada_x0020_1">
  <metadata id="CorelCorpID_0Corel-Layer"/>
  <rect class="fil0" x="16934" y="16934" width="220132" height="220132" rx="55034" ry="55034"/>
  <path class="fil1" d="M87585 236298l0 -106523 -21279 0 0 -16062 21279 0 0 -12990c0,-8228 818,-14329 2501,-18305 2319,-5354 6320,-9724 12141,-13070 5774,-3346 13913,-4999 24371,-4999 6774,0 14231,708 22415,2086l-3592 18187c-5001,-748 -9685,-1142 -14141,-1142 -7274,0 -12413,1339 -15459,4016 -3001,2677 -4501,7676 -4501,14998l0 11219 27553 0 0 16062 -27280 0 0 106523 -24008 0z"/>
 </g>
</svg>
