<?xml version="1.0" encoding="UTF-8"?>
<!DOCTYPE svg PUBLIC "-//W3C//DTD SVG 1.1//EN" "http://www.w3.org/Graphics/SVG/1.1/DTD/svg11.dtd">
<!-- Creator: CorelDRAW X6 -->
<svg xmlns="http://www.w3.org/2000/svg" xml:space="preserve" width="101.6mm" height="41.656mm" version="1.1" style="shape-rendering:geometricPrecision; text-rendering:geometricPrecision; image-rendering:optimizeQuality; fill-rule:evenodd; clip-rule:evenodd"
viewBox="0 0 1016000 416560"
 xmlns:xlink="http://www.w3.org/1999/xlink">
 <defs>
  <style type="text/css">
   <![CDATA[
    .fil0 {fill:#00CCFF}
    .fil1 {fill:white;fill-rule:nonzero}
   ]]>
  </style>
 </defs>
 <g id="Camada_x0020_1">
  <metadata id="CorelCorpID_0Corel-Layer"/>
  <rect class="fil0" x="8467" y="8467" width="999067" height="399627" rx="101600" ry="101600"/>
  <path class="fil1" d="M230463 291750l0 -105008 -18161 0 0 -15832 18161 0 0 -12806c0,-8110 699,-14125 2135,-18045 1979,-5277 5394,-9585 10361,-12883 4928,-3299 11874,-4928 20800,-4928 5782,0 12146,698 19131,2056l-3066 17928c-4269,-737 -8266,-1125 -12068,-1125 -6209,0 -10594,1319 -13194,3958 -2561,2639 -3842,7567 -3842,14785l0 11060 23516 0 0 15832 -23283 0 0 105008 -20490 0zm52116 -60420c0,-22313 6209,-38844 18666,-49594 10361,-8925 23050,-13387 37991,-13387 16569,0 30151,5432 40706,16298 10517,10827 15794,25844 15794,44975 0,15523 -2328,27708 -6985,36594 -4656,8886 -11447,15794 -20373,20722 -8886,4928 -18626,7373 -29142,7373 -16920,0 -30579,-5394 -41018,-16221 -10439,-10826 -15639,-26426 -15639,-46760zm20955 39c0,15444 3377,27008 10129,34653 6791,7683 15289,11525 25573,11525 10167,0 18626,-3842 25417,-11564 6752,-7722 10128,-19480 10128,-35274 0,-14901 -3415,-26194 -10205,-33838 -6791,-7684 -15251,-11526 -25340,-11526 -10284,0 -18782,3803 -25573,11448 -6752,7645 -10129,19170 -10129,34576zm115757 60381l0 -166708 20490 0 0 166708 -20490 0zm51728 0l0 -166708 20490 0 0 166708 -20490 0zm44510 -60420c0,-22313 6209,-38844 18666,-49594 10361,-8925 23050,-13387 37991,-13387 16569,0 30151,5432 40706,16298 10517,10827 15794,25844 15794,44975 0,15523 -2328,27708 -6985,36594 -4656,8886 -11447,15794 -20373,20722 -8886,4928 -18626,7373 -29142,7373 -16920,0 -30579,-5394 -41018,-16221 -10439,-10826 -15639,-26426 -15639,-46760zm20955 39c0,15444 3377,27008 10129,34653 6791,7683 15289,11525 25573,11525 10167,0 18626,-3842 25417,-11564 6752,-7722 10128,-19480 10128,-35274 0,-14901 -3415,-26194 -10205,-33838 -6791,-7684 -15251,-11526 -25340,-11526 -10284,0 -18782,3803 -25573,11448 -6752,7645 -10129,19170 -10129,34576zm137954 60381l-36516 -120840 21421 0 19286 69733 6830 25961c271,-1281 2367,-9585 6248,-24913l19131 -70781 20993 0 18200 70160 5937 23012 6947 -23322 20877 -69850 19907 0 -37913 120840 -21188 0 -19170 -72295 -4850 -20683 -24448 92978 -21692 0z"/>
 </g>
</svg>
