<?xml version="1.0" encoding="UTF-8"?>
<!DOCTYPE svg PUBLIC "-//W3C//DTD SVG 1.1//EN" "http://www.w3.org/Graphics/SVG/1.1/DTD/svg11.dtd">
<!-- Creator: CorelDRAW X6 -->
<svg xmlns="http://www.w3.org/2000/svg" xml:space="preserve" width="101.6mm" height="41.656mm" version="1.1" style="shape-rendering:geometricPrecision; text-rendering:geometricPrecision; image-rendering:optimizeQuality; fill-rule:evenodd; clip-rule:evenodd"
viewBox="0 0 1016000 416560"
 xmlns:xlink="http://www.w3.org/1999/xlink">
 <defs>
  <style type="text/css">
   <![CDATA[
    .fil0 {fill:#003399}
    .fil1 {fill:white;fill-rule:nonzero}
   ]]>
  </style>
 </defs>
 <g id="Camada_x0020_1">
  <metadata id="CorelCorpID_0Corel-Layer"/>
  <rect class="fil0" x="8467" y="8467" width="999067" height="399627" rx="101600" ry="101600"/>
  <path class="fil1" d="M345676 290353l0 -166708 20490 0 0 166708 -20490 0zm52194 -143425l0 -23283 20489 0 0 23283 -20489 0zm0 143425l0 -120840 20489 0 0 120840 -20489 0zm51806 0l0 -166708 20489 0 0 94957 48429 -49089 26466 0 -46101 44898 50757 75942 -25223 0 -40125 -61740 -14203 13815 0 47925 -20489 0zm198762 -39116l21188 2794c-3299,12301 -9469,21886 -18472,28677 -9003,6791 -20489,10206 -34498,10206 -17618,0 -31588,-5433 -41910,-16298 -10322,-10827 -15483,-26077 -15483,-45674 0,-20257 5200,-36012 15638,-47188 10439,-11214 23982,-16802 40630,-16802 16104,0 29259,5471 39465,16453 10206,10982 15328,26427 15328,46334 0,1203 -39,3027 -116,5433l-89990 0c776,13232 4501,23399 11253,30423 6714,7024 15135,10555 25185,10555 7490,0 13893,-1979 19170,-5937 5316,-3958 9507,-10284 12612,-18976zm-67056 -32829l67289 0c-893,-10167 -3493,-17773 -7723,-22857 -6480,-7877 -14940,-11836 -25301,-11836 -9391,0 -17268,3144 -23671,9430 -6364,6287 -9896,14708 -10594,25263z"/>
 </g>
</svg>
