<?xml version="1.0" encoding="UTF-8"?>
<!DOCTYPE svg PUBLIC "-//W3C//DTD SVG 1.1//EN" "http://www.w3.org/Graphics/SVG/1.1/DTD/svg11.dtd">
<!-- Creator: CorelDRAW X6 -->
<svg xmlns="http://www.w3.org/2000/svg" xml:space="preserve" width="44.0266mm" height="33.8666mm" version="1.1" style="shape-rendering:geometricPrecision; text-rendering:geometricPrecision; image-rendering:optimizeQuality; fill-rule:evenodd; clip-rule:evenodd"
viewBox="0 0 440266 338666"
 xmlns:xlink="http://www.w3.org/1999/xlink">
 <defs>
  <style type="text/css">
   <![CDATA[
    .str0 {stroke:black;stroke-width:762}
    .fil3 {fill:black;fill-rule:nonzero}
    .fil1 {fill:url(#id0)}
    .fil2 {fill:url(#id1)}
    .fil0 {fill:url(#id2)}
   ]]>
  </style>
  <linearGradient id="id0" gradientUnits="userSpaceOnUse" x1="181186" y1="136913" x2="433493" y2="136913">
   <stop offset="0" style="stop-color:#01AF02"/>
   <stop offset="1" style="stop-color:#029900"/>
  </linearGradient>
  <linearGradient id="id1" gradientUnits="userSpaceOnUse" x1="259079" y1="137760" x2="6773" y2="137760">
   <stop offset="0" style="stop-color:#FDC800"/>
   <stop offset="1" style="stop-color:#FFAF02"/>
  </linearGradient>
  <linearGradient id="id2" gradientUnits="userSpaceOnUse" x1="4876" y1="93857" x2="147522" y2="68705">
   <stop offset="0" style="stop-color:#0362FC"/>
   <stop offset="1" style="stop-color:#005DCB"/>
  </linearGradient>
 </defs>
 <g id="Camada_x0020_1">
  <metadata id="CorelCorpID_0Corel-Layer"/>
  <polygon class="fil0" points="6773,11607 145626,11607 145626,150956 "/>
  <polygon class="fil1" points="181186,9913 181186,263913 433493,263913 "/>
  <polygon class="fil2" points="6773,11607 6773,263913 259079,263913 "/>
  <path class="fil3" d="M14392 327834l0 -41061 2031 0 0 17885 0 0c794,-1955 1949,-3565 3456,-4830 1861,-1572 4059,-2358 6597,-2358 3486,0 6376,1437 8663,4313 2288,2875 3435,6632 3435,11271 0,4409 -1022,8071 -3060,10984 -2213,3144 -5222,4716 -9038,4716 -2684,0 -4957,-786 -6818,-2358 -1537,-1303 -2618,-2971 -3235,-5003l0 0 0 6441 -2031 0zm12356 -1380c2883,0 5236,-1208 7060,-3623 1824,-2416 2735,-5693 2735,-9834 0,-4256 -1029,-7591 -3088,-10006 -1853,-2147 -4177,-3221 -6972,-3221 -2736,0 -5030,978 -6884,2933 -2294,2415 -3441,5981 -3441,10696 0,3336 706,6173 2118,8512 1853,3028 4677,4543 8472,4543zm15443 1380l0 -29444 2031 0 0 6958 0 0c1544,-5252 4684,-7878 9427,-7878 508,0 1067,115 1692,345l0 2645c-471,-230 -1250,-345 -2338,-345 -2766,0 -4957,1208 -6575,3623 -1471,2224 -2206,4946 -2206,8166l0 15930 -2031 0zm34066 -11042l0 -5405 -88 0c-618,882 -1824,1399 -3619,1552l-7634 691c-4324,383 -6486,2434 -6486,6153 0,4447 2456,6671 7369,6671 2648,0 4956,-729 6927,-2185 2354,-1764 3531,-4256 3531,-7477zm-16812 -9316l-2030 0c382,-3680 1368,-6268 2957,-7763 1588,-1496 4103,-2243 7545,-2243 3471,0 6016,613 7634,1840 1824,1342 2735,3604 2735,6786l0 16505c0,1303 59,2166 177,2588 206,613 647,920 1323,920 619,0 1280,-154 1986,-460l0 2300c-647,307 -1471,460 -2471,460 -1265,0 -2074,-594 -2427,-1783 -235,-728 -352,-2281 -352,-4658l-89 0c-1883,4524 -5471,6786 -10766,6786 -6178,0 -9267,-2990 -9267,-8971 0,-5138 2839,-7955 8516,-8454l7899 -690c1294,-115 2162,-383 2603,-805 560,-575 839,-1706 839,-3393 0,-2185 -560,-3796 -1677,-4831 -1353,-1226 -3589,-1840 -6707,-1840 -2883,0 -4957,614 -6222,1840 -1147,1151 -1883,3106 -2206,5866zm22504 20358l0 -2645 18400 -24499 -17253 0 0 -2300 20077 0 0 1955 -18929 25189 19547 0 0 2300 -21842 0zm25019 0l0 -29444 2030 0 0 29444 -2030 0zm0 -34965l0 -6096 2030 0 0 6096 -2030 0zm7324 34965l0 -41061 2030 0 0 41061 -2030 0zm7325 0l0 -29444 2030 0 0 29444 -2030 0zm0 -34965l0 -6096 2030 0 0 6096 -2030 0zm25681 23923l0 -5405 -88 0c-618,882 -1824,1399 -3619,1552l-7634 691c-4324,383 -6486,2434 -6486,6153 0,4447 2457,6671 7369,6671 2648,0 4956,-729 6928,-2185 2353,-1764 3530,-4256 3530,-7477zm-16812 -9316l-2030 0c382,-3680 1368,-6268 2957,-7763 1588,-1496 4103,-2243 7545,-2243 3471,0 6016,613 7634,1840 1824,1342 2735,3604 2735,6786l0 16505c0,1303 59,2166 177,2588 206,613 647,920 1323,920 619,0 1280,-154 1986,-460l0 2300c-647,307 -1471,460 -2470,460 -1266,0 -2074,-594 -2427,-1783 -236,-728 -353,-2281 -353,-4658l-89 0c-1883,4524 -5471,6786 -10766,6786 -6178,0 -9267,-2990 -9267,-8971 0,-5138 2839,-7955 8516,-8454l7899 -690c1294,-115 2162,-383 2603,-805 560,-575 839,-1706 839,-3393 0,-2185 -559,-3796 -1677,-4831 -1353,-1226 -3589,-1840 -6707,-1840 -2883,0 -4957,614 -6221,1840 -1148,1151 -1883,3106 -2207,5866zm24445 20358l0 -29444 2030 0 0 5866 0 0c1831,-4524 5023,-6786 9575,-6786 4487,0 7531,1591 9127,4773 860,1725 1287,4198 1287,7418l0 18173 -2030 0 0 -18058c0,-3258 -559,-5674 -1677,-7246 -1323,-1840 -3559,-2760 -6707,-2760 -3118,0 -5545,1131 -7281,3393 -1529,1994 -2294,4486 -2294,7476l0 17195 -2030 0z"/>
  <path class="fil3 str0" d="M207882 325350l0 -6051 0 0c-768,1909 -2113,3476 -4024,4700 -2313,1477 -5139,2215 -8476,2215 -4738,0 -8487,-1476 -11239,-4430 -2534,-2737 -3804,-6177 -3804,-10319 0,-4359 1426,-7889 4270,-10590 2844,-2702 6437,-4052 10773,-4052 3154,0 5907,738 8257,2215 1838,1189 3255,2701 4243,4538l0 0 0 -16803 2524 0 0 38577 -2524 0zm-12839 -1297c4718,0 8230,-1422 10534,-4268 1756,-2197 2635,-4863 2635,-7996 0,-4431 -1427,-7780 -4281,-10050 -2304,-1837 -5157,-2755 -8559,-2755 -3475,0 -6365,1008 -8669,3025 -2560,2270 -3841,5403 -3841,9402 0,3890 1135,6969 3402,9238 2268,2270 5195,3404 8779,3404zm21453 1297l0 -27663 2524 0 0 6538 0 0c1920,-4935 5825,-7402 11723,-7402 630,0 1326,108 2103,324l0 2485c-585,-216 -1555,-324 -2907,-324 -3439,0 -6165,1135 -8176,3404 -1829,2089 -2743,4646 -2743,7672l0 14966 -2524 0zm48831 -13291l-28640 0c73,3566 1262,6429 3566,8590 2414,2270 5688,3404 9821,3404 5889,0 9876,-2629 11961,-7888l2524 0c-2267,6700 -7187,10049 -14759,10049 -4792,0 -8596,-1341 -11412,-4025 -2817,-2683 -4225,-6312 -4225,-10887 0,-3601 1115,-6735 3347,-9401 2853,-3385 6968,-5078 12345,-5078 4792,0 8578,1422 11357,4268 2670,2773 4042,6429 4115,10968zm-28640 -2161l25788 0c-513,-3638 -1976,-6412 -4390,-8321 -2268,-1729 -5102,-2593 -8504,-2593 -3549,0 -6448,981 -8697,2944 -2250,1963 -3649,4620 -4197,7970zm55691 5078l0 -5078 -110 0c-769,828 -2268,1314 -4500,1458l-9492 649c-5376,360 -8065,2287 -8065,5781 0,4178 3055,6267 9163,6267 3292,0 6163,-684 8613,-2053 2927,-1657 4391,-3998 4391,-7024zm-20905 -8752l-2524 0c476,-3458 1701,-5889 3676,-7294 1975,-1405 5103,-2107 9382,-2107 4317,0 7480,576 9492,1729 2269,1260 3402,3385 3402,6375l0 15506c0,1225 73,2035 219,2432 256,576 806,864 1647,864 768,0 1591,-144 2468,-432l0 2161c-804,288 -1829,432 -3072,432 -1573,0 -2579,-558 -3018,-1675 -292,-684 -438,-2143 -438,-4376l-110 0c-2341,4250 -6804,6375 -13388,6375 -7681,0 -11522,-2809 -11522,-8428 0,-4827 3530,-7474 10589,-7942l9822 -649c1609,-108 2688,-360 3237,-756 695,-540 1043,-1603 1043,-3188 0,-2053 -696,-3566 -2085,-4538 -1683,-1153 -4464,-1729 -8341,-1729 -3585,0 -6163,576 -7736,1729 -1427,1080 -2341,2917 -2743,5511zm30397 19126l0 -27663 2523 0 0 4701 0 0c1098,-1765 2615,-3134 4535,-4107 1930,-972 4024,-1458 6302,-1458 5752,0 9345,2143 10780,6429 2049,-4286 5679,-6429 10892,-6429 7809,0 11714,3259 11714,9779l0 18748 -2524 0 0 -17938c0,-2485 -694,-4466 -2085,-5943 -1573,-1657 -3913,-2485 -7023,-2485 -3402,0 -5999,819 -7791,2458 -1792,1639 -2688,3935 -2688,6889l0 17019 -2525 0 0 -18424c0,-5295 -3035,-7942 -9108,-7942 -3145,0 -5650,846 -7516,2539 -1976,1765 -2963,4214 -2963,7348l0 16479 -2523 0zm82410 -13291l-28641 0c73,3566 1262,6429 3567,8590 2413,2270 5687,3404 9821,3404 5889,0 9876,-2629 11960,-7888l2525 0c-2268,6700 -7188,10049 -14760,10049 -4792,0 -8596,-1341 -11412,-4025 -2817,-2683 -4224,-6312 -4224,-10887 0,-3601 1115,-6735 3347,-9401 2852,-3385 6967,-5078 12344,-5078 4793,0 8578,1422 11358,4268 2670,2773 4042,6429 4115,10968zm-28641 -2161l25788 0c-513,-3638 -1975,-6412 -4390,-8321 -2268,-1729 -5102,-2593 -8504,-2593 -3548,0 -6447,981 -8697,2944 -2249,1963 -3649,4620 -4197,7970zm32647 15452l0 -27663 2523 0 0 6538 0 0c1921,-4935 5825,-7402 11724,-7402 630,0 1326,108 2103,324l0 2485c-585,-216 -1555,-324 -2908,-324 -3438,0 -6164,1135 -8176,3404 -1829,2089 -2743,4646 -2743,7672l0 14966 -2523 0zm43454 -19558l-2524 0c-183,-2342 -1107,-4062 -2770,-5160 -1664,-1099 -4290,-1648 -7874,-1648 -6109,0 -9162,1837 -9162,5511 0,2629 1883,4196 5651,4700l8943 1189c5889,792 8834,3314 8834,7564 0,5511 -4481,8266 -13443,8266 -8779,0 -13351,-3169 -13716,-9509l2523 0c256,2162 914,3746 1975,4755 1829,1729 5122,2593 9876,2593 6841,0 10261,-2035 10261,-6105 0,-2846 -1884,-4520 -5651,-5025l-9877 -1296c-5267,-685 -7901,-3008 -7901,-6970 0,-2017 769,-3710 2304,-5079 2050,-1837 5213,-2755 9492,-2755 8268,0 12620,2989 13059,8969z"/>
 </g>
</svg>
