<?xml version="1.0" encoding="UTF-8"?>
<!DOCTYPE svg PUBLIC "-//W3C//DTD SVG 1.1//EN" "http://www.w3.org/Graphics/SVG/1.1/DTD/svg11.dtd">
<!-- Creator: CorelDRAW X6 -->
<svg xmlns="http://www.w3.org/2000/svg" xml:space="preserve" width="86.36mm" height="114.639mm" version="1.1" style="shape-rendering:geometricPrecision; text-rendering:geometricPrecision; image-rendering:optimizeQuality; fill-rule:evenodd; clip-rule:evenodd"
viewBox="0 0 863600 1146386"
 xmlns:xlink="http://www.w3.org/1999/xlink">
 <defs>
  <style type="text/css">
   <![CDATA[
    .fil7 {fill:#454649}
    .fil2 {fill:#47484C}
    .fil6 {fill:#D2D3D5}
    .fil3 {fill:#4B4B4D}
    .fil4 {fill:url(#id0)}
    .fil5 {fill:url(#id1)}
    .fil1 {fill:url(#id2)}
    .fil0 {fill:url(#id3)}
   ]]>
  </style>
  <linearGradient id="id0" gradientUnits="userSpaceOnUse" x1="243302" y1="446207" x2="205086" y2="445773">
   <stop offset="0" style="stop-color:#00790E"/>
   <stop offset="0.411765" style="stop-color:#006C0E"/>
   <stop offset="1" style="stop-color:#005E0E"/>
  </linearGradient>
  <linearGradient id="id1" gradientUnits="userSpaceOnUse" x1="704988" y1="406529" x2="234983" y2="485451">
   <stop offset="0" style="stop-color:#009908"/>
   <stop offset="1" style="stop-color:#00780F"/>
  </linearGradient>
  <linearGradient id="id2" gradientUnits="userSpaceOnUse" x1="148931" y1="422947" x2="232453" y2="430747">
   <stop offset="0" style="stop-color:#008509"/>
   <stop offset="0.509804" style="stop-color:#00980A"/>
   <stop offset="1" style="stop-color:#00AB0B"/>
  </linearGradient>
  <linearGradient id="id3" gradientUnits="userSpaceOnUse" x1="197625" y1="715968" x2="185108" y2="748141">
   <stop offset="0" style="stop-color:#00A30A"/>
   <stop offset="0.760784" style="stop-color:#00990A"/>
   <stop offset="1" style="stop-color:#008E0A"/>
  </linearGradient>
 </defs>
 <g id="Layer_x0020_1">
  <metadata id="CorelCorpID_0Corel-Layer"/>
  <polygon class="fil0" points="152362,714674 228204,760973 230370,758682 206494,706323 204600,703140 152955,713112 "/>
  <polygon class="fil1" points="226582,144828 184758,139024 152362,714674 207980,706226 229018,144994 "/>
  <path class="fil2" d="M295459 216512l-12009 -65c600,-114406 44132,-208358 116949,-208358 91137,0 147253,129670 147253,206752l-12009 -64c356,-68365 -57367,-153743 -134675,-155575 -57750,-1370 -104945,49444 -105509,157310z"/>
  <path class="fil3" d="M109029 916022l-20862 -9908c-13445,-6491 -22342,-11535 -26686,-15123 -4346,-3592 -7733,-8055 -10167,-13386 -2433,-5330 -3654,-11240 -3654,-17731 0,-10549 3396,-19181 10175,-25906 6777,-6720 16078,-10080 27898,-10080 8108,0 16923,1567 26422,4692 9505,3131 16576,6374 21208,9734l10261 -30248c-11012,-9150 -30594,-13730 -58760,-13730 -21096,-1 -38360,6256 -51805,18774 -13445,12516 -20164,28275 -20164,47284 0,15647 3450,29033 10344,40156 6897,11123 19034,20745 36419,28855l20512 9562c18428,8690 29925,16718 34506,24075 4580,7365 6867,15328 6867,23906 0,11475 -4113,20923 -12344,28332 -8227,7420 -19122,11129 -32678,11129 -7652,0 -16313,-1594 -25989,-4785 -9679,-3183 -17764,-7153 -24249,-11903l-12691 31988c15991,10661 35288,15991 57887,15991 25730,0 46268,-6663 61626,-19991 15355,-13328 23031,-29552 23031,-48679 0,-17612 -3506,-32127 -10518,-43542 -7014,-11415 -19209,-21239 -36589,-29466z"/>
  <path class="fil3" d="M381779 863694c-10666,0 -21039,2376 -31117,7129 -10088,4755 -16982,10665 -20688,17728 -10666,-16570 -29324,-24857 -55979,-24857 -19121,0 -35052,8347 -47799,25035l-10954 -21555 -21555 0 0 186179 33029 0 0 -137331c3126,-6142 8428,-11761 15903,-16862 7475,-5101 14519,-7654 21122,-7654 11358,-1 20486,2640 27380,7913 6892,5276 10344,12489 10344,21639l0 132295 33030 0 0 -137680c2545,-6259 7300,-11845 14254,-16777 6954,-4919 14424,-7390 22422,-7390 25383,-1 38073,14665 38073,43983l0 117864 33029 0 0 -124466c0,-20628 -5278,-36654 -15818,-48069 -10551,-11409 -25443,-17124 -44676,-17124z"/>
  <polygon class="fil3" points="479650,894985 505202,894985 505202,1053353 538232,1053353 538232,867174 479650,867174 "/>
  <path class="fil3" d="M523280 796769c-5677,0 -10492,1970 -14427,5913 -3937,3938 -5910,8747 -5910,14429 0,5676 2000,10513 6000,14513 3993,3998 8778,5997 14336,5997 5682,0 10521,-1999 14516,-5997 4001,-4000 6001,-8837 6001,-14513 0,-5565 -2000,-10345 -6001,-14342 -3994,-4000 -8834,-6000 -14515,-6000z"/>
  <path class="fil3" d="M626365 995118l0 -204260 -33028 0 0 209824c0,37430 21385,56149 64148,56149l0 -29550c-9270,0 -16775,-2870 -22508,-8611 -5744,-5734 -8612,-13584 -8612,-23552z"/>
  <path class="fil3" d="M719192 939490c1281,-13448 6668,-24688 16170,-33727 9966,-9500 22307,-14257 37025,-14257 15761,-1 28222,4872 37376,14608 8344,8924 12518,20045 12518,33376l-103089 0zm135941 3820c0,-23754 -7300,-42820 -21900,-57192 -15069,-14946 -35875,-22424 -62405,-22424 -22832,0 -42594,8287 -59282,24857 -18658,18547 -27986,43176 -27986,73883 0,29550 9097,53081 27288,70578 16343,15878 39483,23819 62893,23819 48939,0 63809,-30384 67473,-40810 4104,4322 4614,11093 1350,16693 815,-651 1575,-1359 2291,-2169 5478,-6300 5279,-15358 -433,-20200 -5717,-4851 -14784,-3690 -20266,2627 -709,809 -1313,1670 -1840,2543 5306,-4162 12478,-4590 17437,-815 -11561,10003 -22222,17954 -47997,17954 -24522,0 -44982,-8736 -55521,-18938 -11942,-11704 -17912,-28449 -17912,-50238l134200 0c1745,-6140 2610,-12864 2610,-20168z"/>
  <polygon class="fil3" points="74865,1089659 66577,1089659 55647,1120900 42531,1089659 40345,1089659 27685,1120900 17484,1089659 8467,1089659 25499,1138297 27685,1138297 41620,1105872 55556,1138297 57742,1138297 "/>
  <path class="fil3" d="M177073 1109242c0,-6102 -1913,-10930 -5648,-14664 -3825,-3826 -9108,-5738 -15939,-5738 -5829,0 -10839,2095 -15120,6375 -4827,4737 -7195,11022 -7195,18946 0,7560 2368,13571 7013,18034 4191,4099 9200,6102 15211,6102 4190,0 7924,-637 11294,-1912 2733,-911 4736,-2095 6012,-3370l-3552 -6103c-3188,2824 -7287,4281 -12114,4281 -4190,0 -7651,-1275 -10384,-3917 -3006,-3005 -4554,-7286 -4554,-12842l34338 0c455,-1548 638,-3279 638,-5192l0 0zm-11568 -9563c2095,2368 3188,5191 3188,8652l-26414 0c365,-3461 1731,-6375 4099,-8744 2641,-2459 5738,-3642 9564,-3642 4007,0 7195,1274 9563,3734l0 0z"/>
  <path class="fil3" d="M252800 1137022c2186,820 4372,1275 6648,1275 6923,0 12388,-2277 16487,-6830 4098,-4555 6102,-10839 6102,-18764 1,-6922 -2004,-12569 -6102,-17123 -4008,-4463 -9291,-6740 -15849,-6740 -2094,0 -4280,455 -6466,1366 -2278,911 -3735,1913 -4555,3006l0 -22953 -8470 0 0 68038 4189 0 3006 -4281c1184,1185 2824,2186 5010,3006l0 0zm-91 -39712c1821,-910 3279,-1365 4281,-1365 4918,0 8834,1548 11749,4553 2915,3006 4372,7196 4372,12661 0,6467 -1275,11112 -3734,13845 -2460,2823 -6650,4189 -12387,4189 -1093,0 -2642,-547 -4737,-1640 -2095,-1093 -3188,-1821 -3188,-2367l0 -27507c547,-729 1731,-1548 3644,-2369l0 0z"/>
  <polygon class="fil3" points="366118,1114889 366118,1107147 347081,1107147 347081,1114889 "/>
  <path class="fil3" d="M445104 1138297c5282,0 9471,-1184 12478,-3642 3005,-2369 4463,-5739 4463,-10020 0,-3279 -821,-6012 -2551,-8197 -1639,-2096 -4372,-4008 -8107,-5738l-6011 -2733c-3460,-1639 -5191,-3916 -5191,-7013 0,-1458 728,-2642 2095,-3553 1366,-1001 3096,-1456 5100,-1456 3370,0 6740,1365 10110,4007l2369 -7833c-5284,-2186 -9655,-3279 -13116,-3279 -4646,0 -8380,1093 -11204,3279 -2823,2186 -4280,5282 -4280,9199 0,1457 273,2915 728,4281 456,1275 1275,2550 2186,3734 1003,1093 2186,2186 3552,3097 1367,911 3917,2277 7834,4098 5009,2186 7559,4919 7559,8107 0,4372 -2641,6558 -7833,6558 -2823,0 -6649,-1549 -11294,-4645l-3006 8015c4372,2459 9109,3734 14118,3734l1 0z"/>
  <path class="fil3" d="M528607 1123451c0,4281 1275,7833 3917,10657 2550,2823 5828,4189 9563,4189 4191,0 8015,-455 11567,-1366l-1274 -7378c-2277,1093 -4555,1640 -6741,1640 -3005,0 -5192,-819 -6558,-2550 -1366,-1639 -2004,-4555 -2004,-8562l0 -23681 13117 0 0 -6650 -13117 0 0 -13206 -8470 3279 0 9927 -5557 0 0 6650 5557 0 0 27051z"/>
  <path class="fil3" d="M618912 1131557c3825,4463 9108,6740 15939,6740 6650,0 11841,-2186 15757,-6649 3826,-4463 5739,-10474 5739,-18216 1,-7651 -1913,-13753 -5648,-18034 -3734,-4372 -9017,-6558 -15848,-6558 -6466,0 -11658,2277 -15666,6831 -3916,4463 -5920,10383 -5920,17761 0,7651 1912,13663 5647,18125l0 0zm6740 -31059c2277,-3188 5373,-4736 9199,-4736 8380,0 12569,5920 12569,17670 1,5556 -1093,9928 -3370,13116 -2186,3188 -5282,4828 -9199,4828 -8470,0 -12660,-6012 -12660,-17944 0,-5465 1183,-9837 3461,-12934l0 0z"/>
  <path class="fil3" d="M749310 1089659c-2824,-546 -5010,-819 -6558,-819 -6103,0 -10657,2824 -13754,8470l0 -7560 -8470 0 0 47637 8470 0 0 -27325c0,-3917 1093,-7196 3370,-10019 2278,-2733 4828,-4098 7834,-4098 1912,0 3734,637 5556,1912l3552 -8198z"/>
  <path class="fil3" d="M850745 1109242c0,-6102 -1912,-10930 -5647,-14664 -3825,-3826 -9109,-5738 -15939,-5738 -5829,0 -10839,2095 -15120,6375 -4828,4737 -7195,11022 -7195,18946 0,7560 2367,13571 7013,18034 4189,4099 9199,6102 15211,6102 4189,0 7923,-637 11293,-1912 2733,-911 4737,-2095 6012,-3370l-3551 -6103c-3189,2824 -7288,4281 -12115,4281 -4189,0 -7651,-1275 -10383,-3917 -3006,-3005 -4555,-7286 -4555,-12842l34339 0c455,-1548 637,-3279 637,-5192l0 0zm-11567 -9563c2095,2368 3187,5191 3187,8652l-26413 0c364,-3461 1730,-6375 4098,-8744 2642,-2459 5739,-3642 9564,-3642 4008,0 7196,1274 9563,3734l1 0z"/>
  <polygon class="fil4" points="242122,131139 239591,131007 226337,144828 206262,706599 228204,760973 229652,760845 "/>
  <polygon class="fil5" points="684744,137008 239592,131007 228203,760973 711765,720423 "/>
  <path class="fil6" d="M601833 205519l3406 18c-615,117819 -38663,214608 -113652,214608 -93853,0 -145113,-133499 -145113,-212882l2480 -701c-371,70401 62816,145037 142432,146922 59471,1409 109869,-36880 110447,-147965z"/>
  <path class="fil2" d="M621611 227968c286,-1565 425,-3163 413,-4826 -68,-12862 -9466,-23331 -21009,-23407 -11518,-76 -20844,10273 -20770,23129 6,1665 188,3267 491,4834 1938,-10530 10276,-18369 20325,-18303 10053,67 18476,8016 20550,18573z"/>
  <path class="fil7" d="M454893 212540c6954,-46 12546,8694 12489,19532 -58,10859 -5739,19675 -12696,19721 -6932,45 -12525,-8695 -12467,-19556 58,-10837 5739,-19651 12674,-19697z"/>
  <path class="fil2" d="M369430 227968c285,-1565 427,-3163 414,-4826 -68,-12862 -9467,-23331 -21010,-23407 -11519,-76 -20841,10273 -20770,23129 8,1665 188,3267 490,4834 1941,-10530 10276,-18369 20326,-18303 10053,67 18476,8016 20550,18573z"/>
  <path class="fil7" d="M509391 212540c6954,-46 12542,8694 12488,19532 -60,10859 -5739,19675 -12696,19721 -6932,45 -12524,-8695 -12467,-19556 58,-10837 5739,-19651 12675,-19697z"/>
 </g>
</svg>
