<?xml version="1.0" encoding="UTF-8"?>
<!DOCTYPE svg PUBLIC "-//W3C//DTD SVG 1.1//EN" "http://www.w3.org/Graphics/SVG/1.1/DTD/svg11.dtd">
<!-- Creator: CorelDRAW X6 -->
<svg xmlns="http://www.w3.org/2000/svg" xml:space="preserve" width="25.4mm" height="25.4mm" version="1.1" style="shape-rendering:geometricPrecision; text-rendering:geometricPrecision; image-rendering:optimizeQuality; fill-rule:evenodd; clip-rule:evenodd"
viewBox="0 0 254000 254000"
 xmlns:xlink="http://www.w3.org/1999/xlink">
 <defs>
  <style type="text/css">
   <![CDATA[
    .fil0 {fill:#00CCFF}
    .fil1 {fill:white;fill-rule:nonzero}
   ]]>
  </style>
 </defs>
 <g id="Camada_x0020_1">
  <metadata id="CorelCorpID_0Corel-Layer"/>
  <rect class="fil0" x="16934" y="16934" width="220132" height="220132" rx="55034" ry="55034"/>
  <path class="fil1" d="M155647 215869c0,6096 -2177,11320 -6531,15674 -4354,4354 -9579,6531 -15674,6531l-5486 0c-18286,0 -33960,-6487 -47021,-19462 -13062,-12974 -19592,-28604 -19592,-46890l0 -88557c0,-6096 2220,-11320 6661,-15674 4441,-4354 9709,-6531 15804,-6531 6096,0 11320,2177 15674,6531 4354,4354 6531,9578 6531,15674l0 22204 27429 0c6095,0 11320,2177 15674,6531 4354,4354 6531,9578 6531,15674 0,6095 -2177,11320 -6531,15674 -4354,4353 -9579,6530 -15674,6530l-27690 0 0 21944c0,5921 2177,11058 6530,15412 4354,4354 9492,6531 15413,6531l5747 0c6095,0 11320,2177 15674,6531 4354,4353 6531,9578 6531,15673z"/>
 </g>
</svg>
